<?xml version="1.0" encoding="UTF-8"?>
<svg width="95px" height="95px" viewBox="0 0 95 95" version="1.1" xmlns="http://www.w3.org/2000/svg" xmlns:xlink="http://www.w3.org/1999/xlink">
    <!-- Generator: Sketch 48.1 (47250) - http://www.bohemiancoding.com/sketch -->
    <title>addition</title>
    <desc>Created with Sketch.</desc>
    <defs></defs>
    <g id="展示版2.1.6" stroke="none" stroke-width="1" fill="none" fill-rule="evenodd" transform="translate(-673.000000, -662.000000)">
        <g id="addition" transform="translate(673.000000, 662.000000)" fill="#D9D4D4" fill-rule="nonzero">
            <path d="M47.5,87.0833333 C25.67375,87.0833333 7.91666667,69.32625 7.91666667,47.5 C7.91666667,25.67375 25.67375,7.91666667 47.5,7.91666667 C69.32625,7.91666667 87.0833333,25.67375 87.0833333,47.5 C87.0833333,69.32625 69.32625,87.0833333 47.5,87.0833333 M47.5,0 C21.3077083,0 0,21.3077083 0,47.5 C0,73.6922917 21.3077083,95 47.5,95 C73.6922917,95 95,73.6922917 95,47.5 C95,21.3077083 73.6922917,0 47.5,0" id="Shape"></path>
            <path d="M68.9950577,42.4993725 L51.4989409,42.4993725 L51.4989409,25.0006275 C51.4989409,22.791142 49.7076584,21 47.4979995,21 C45.2883406,21 43.4970581,22.791142 43.4970581,25.0006275 L43.4970581,42.4993725 L26.0009414,42.4993725 C23.7912825,42.4993725 22,44.2905144 22,46.5 C22,48.7094856 23.7912825,50.5006275 26.0009414,50.5006275 L43.4970581,50.5006275 L43.4970581,67.9993725 C43.4970581,70.208858 45.2883406,72 47.4979995,72 C49.7076584,72 51.4989409,70.208858 51.4989409,67.9993725 L51.4989409,50.5006275 L68.9990586,50.5006275 C71.2087175,50.5006275 73,48.7094856 73,46.5 C73,44.2905144 71.2087175,42.4993725 68.9990586,42.4993725" id="Shape"></path>
        </g>
    </g>
</svg>
