<?xml version="1.0" encoding="UTF-8"?>
<svg width="17px" height="17px" viewBox="0 0 17 17" version="1.1" xmlns="http://www.w3.org/2000/svg" xmlns:xlink="http://www.w3.org/1999/xlink">
    <defs></defs>
    <g stroke="none" stroke-width="1" fill="none" fill-rule="evenodd" transform="translate(-656.000000, -563.000000)">
        <g transform="translate(656.000000, 560.000000)" fill="#2191E8" fill-rule="nonzero">
            <g id="addition" transform="translate(0.000000, 3.000000)">
                <path d="M8.5,15.5833333 C4.59425,15.5833333 1.41666667,12.40575 1.41666667,8.5 C1.41666667,4.59425 4.59425,1.41666667 8.5,1.41666667 C12.40575,1.41666667 15.5833333,4.59425 15.5833333,8.5 C15.5833333,12.40575 12.40575,15.5833333 8.5,15.5833333 M8.5,0 C3.81295833,0 0,3.81295833 0,8.5 C0,13.1870417 3.81295833,17 8.5,17 C13.1870417,17 17,13.1870417 17,8.5 C17,3.81295833 13.1870417,0 8.5,0" id="Shape"></path>
                <path d="M12.2124602,7.53822247 L9.12147956,7.53822247 L9.12147956,4.44677753 C9.12147956,4.05643508 8.80501966,3.74 8.41464658,3.74 C8.02427351,3.74 7.7078136,4.05643508 7.7078136,4.44677753 L7.7078136,7.53822247 L4.61683298,7.53822247 C4.2264599,7.53822247 3.91,7.85465755 3.91,8.245 C3.91,8.63534245 4.2264599,8.95177753 4.61683298,8.95177753 L7.7078136,8.95177753 L7.7078136,12.0432225 C7.7078136,12.4335649 8.02427351,12.75 8.41464658,12.75 C8.80501966,12.75 9.12147956,12.4335649 9.12147956,12.0432225 L9.12147956,8.95177753 L12.213167,8.95177753 C12.6035401,8.95177753 12.92,8.63534245 12.92,8.245 C12.92,7.85465755 12.6035401,7.53822247 12.213167,7.53822247" id="Shape"></path>
            </g>
        </g>
    </g>
</svg>
