<?xml version="1.0" encoding="UTF-8"?>
<svg width="11px" height="8px" viewBox="0 0 11 8" version="1.1" xmlns="http://www.w3.org/2000/svg" xmlns:xlink="http://www.w3.org/1999/xlink">
    <!-- Generator: Sketch 48.1 (47250) - http://www.bohemiancoding.com/sketch -->
    <title>Shape</title>
    <desc>Created with Sketch.</desc>
    <defs></defs>
    <g id="展示版2.1.6" stroke="none" stroke-width="1" fill="none" fill-rule="evenodd" transform="translate(-239.000000, -332.000000)">
        <g id="右" transform="translate(195.000000, 170.000000)" fill="#FFFFFF" fill-rule="nonzero">
            <g id="打卡地址-有值" transform="translate(42.000000, 158.000000)">
                <path d="M12.751997,5.56207569 C12.751997,5.56207569 7.73220714,11.0381361 7.09002888,11.7001539 C6.7582212,12.0740929 6.19592381,12.1020555 5.83074238,11.7627772 L2.2486219,8.37813653 C1.91712603,8.01402494 1.91712603,7.44703905 2.2486219,7.08292747 C2.40312042,6.91180694 2.61967856,6.81461077 2.8464455,6.81461077 C3.07321245,6.81461077 3.28977059,6.91180694 3.44426911,7.08292747 L6.41313828,9.83338293 C6.41313828,9.82642479 11.5582782,4.26587261 11.5582782,4.26587261 C11.7131636,4.09620525 11.9291355,4 12.1551376,4 C12.3811397,4 12.5971116,4.09620525 12.751997,4.26587261 C13.0826677,4.63070338 13.0826677,5.19724492 12.751997,5.56207569 Z" id="Shape"></path>
            </g>
        </g>
    </g>
</svg>
