<?xml version="1.0" encoding="UTF-8"?>
<svg width="19px" height="21px" viewBox="0 0 19 21" version="1.1" xmlns="http://www.w3.org/2000/svg" xmlns:xlink="http://www.w3.org/1999/xlink">
    <!-- Generator: Sketch 48.1 (47250) - http://www.bohemiancoding.com/sketch -->
    <title>头像1</title>
    <desc>Created with Sketch.</desc>
    <defs></defs>
    <g id="展示版2.2.0" stroke="none" stroke-width="1" fill="none" fill-rule="evenodd" transform="translate(-1279.000000, -18.000000)">
        <g id="上" transform="translate(140.000000, 6.000000)" fill="#85c485" fill-rule="nonzero">
            <g id="cc85bed1b0e1266767cb47d8c42add51" transform="translate(1136.000000, 10.000000)">
                <g id="头像1" transform="translate(3.000000, 2.000000)">
                    <path d="M3.18714281,10.2651607 C3.61575857,10.2651607 3.96744329,9.90478982 3.96744329,9.90478982 C3.96494246,9.42190224 3.92452255,8.93994481 3.84655167,8.46330645 C3.75102051,7.80326341 3.61150534,7.15024856 3.42892606,6.50856762 C3.55921502,6.42455476 3.63781337,6.28068813 3.63773887,6.12635612 C3.64308084,5.91880156 3.50065217,5.73619016 3.29704429,5.68954297 L3.29704429,4.95788096 L3.06625119,4.82683701 L3.06625119,5.68954297 C2.86658725,5.74220783 2.7270633,5.92109501 2.72555661,6.12635612 C2.72184942,6.28158146 2.80134757,6.42709508 2.93436942,6.50856762 C2.7914975,7.03274339 2.39585218,8.59435039 2.39585218,9.8938695 C2.39585218,9.90478982 2.75852706,10.2651607 3.18714281,10.2651607 Z M4.60487186,9.62086128 C4.58838414,9.79885045 4.58838414,9.97796821 4.60487186,10.1559574 C4.64920064,10.66612 4.83567624,11.1539267 5.14338909,11.5646798 C5.31923145,11.7940067 5.46210337,11.8267677 5.71487677,11.7284847 C5.80279795,11.7503254 5.98963046,12.1652979 6.0226009,12.2526605 C6.38527577,13.0170835 6.95676345,13.9562317 8.03379792,14.3602839 C8.77557229,14.6521862 9.59159919,14.7019077 10.3637092,14.5022482 C11.1769801,14.2729213 11.8253989,13.6941439 12.3199555,13.0280038 C12.5965148,12.6730598 12.8255565,12.2839601 13.0013446,11.870449 C13.0343151,11.804927 13.0343151,11.739405 13.1112461,11.7284847 C13.1661969,11.7175644 13.254118,11.772166 13.3090688,11.7612457 C13.4452692,11.7384501 13.5652118,11.6589964 13.6387732,11.5428391 C13.9464861,11.1320861 14.1329617,10.6442793 14.1772904,10.1341167 C14.1937782,9.95612755 14.1937782,9.77700979 14.1772904,9.59902062 C14.1553101,9.32601241 13.9904579,9.04208386 13.6387732,9.04208386 C13.6167929,9.04208386 13.6058028,9.03116353 13.5728323,9.02024321 L13.550852,8.9438009 L13.5838225,8.58343006 C13.6058028,8.16845757 13.6387732,7.76440541 13.6607535,7.36035325 C13.6717437,7.185628 13.6937239,7.02182307 13.7047141,6.84709781 L12.6606501,6.57408959 C12.6166895,6.55224894 12.1770836,6.48672696 12.1770836,6.48672696 C11.1660884,6.37576235 10.1499421,6.31744086 9.13281268,6.31200171 C8.3318611,6.30456429 7.5313462,6.35199815 6.7369605,6.45396598 C6.64903932,6.46488631 6.47319695,6.50856762 6.46220681,6.50856762 C6.45121666,6.50856762 5.67091618,6.68329288 5.36319204,6.79249617 L5.07744821,6.90169945 C5.08843835,7.29483128 5.1214088,7.68796311 5.14338909,8.08109494 C5.15437924,8.39778447 5.18734968,8.714474 5.22032012,9.03116353 C5.18734968,9.04208386 5.17635953,9.05300419 5.15437924,9.05300419 C4.79170437,9.05300419 4.62685215,9.34785306 4.60487186,9.62086128 Z M6.24240385,8.75815532 C7.0372457,8.76679695 7.83139024,8.70834514 8.61627574,8.58343006 C8.85805899,8.53974875 9.15479298,8.4851471 9.45152696,8.41962513 C10.3417289,8.20121856 11.0341082,7.88452903 11.616586,7.4149549 C11.9243102,7.77532574 12.3309456,8.04833396 12.9134235,8.27766086 C12.9354038,8.28858119 12.9463939,8.28858119 12.9683742,8.29950152 L12.9573841,8.52882842 C12.91484,9.31689968 12.8193797,10.1012683 12.6716402,10.8766991 C12.5287683,11.5209985 11.4407437,14.0763554 9.28667475,14.0217537 C8.94739199,14.0098158 8.61274854,13.9396177 8.29756146,13.8142675 C7.20953685,13.4538966 6.61606887,12.4601467 6.16547282,11.0623447 C5.95692188,10.3868859 5.85678263,9.68299378 5.86873883,8.97656189 C5.86870041,8.81584038 5.85768496,8.65530673 5.83576839,8.49606743 C5.97864031,8.74723499 6.11052208,8.75815532 6.24240385,8.75815532 Z M13.5838225,5.0889249 L13.5838225,5.07800457 C13.595186,4.93644491 13.5725868,4.7942261 13.5178816,4.66303208 C13.5016817,4.53381701 13.4294046,4.41811034 13.3200589,4.34634255 C13.1780054,4.24268617 13.0272524,4.15134761 12.8694629,4.07333434 C12.480746,3.87841606 12.066398,3.73872682 11.6385663,3.65836185 C10.7123802,3.47860334 9.7674769,3.41258691 8.82508855,3.46179593 C8.43154888,3.47238645 8.03893344,3.50520039 7.64914275,3.56007889 C6.98973389,3.65836185 6.35230533,3.81124645 5.75883736,4.13885631 C5.53903441,4.25897992 5.38517234,4.33542222 5.31923145,4.59751011 C5.17635953,5.19812819 5.18734968,5.72230396 5.16536939,6.32292203 L5.16536939,6.37752368 C5.54035572,6.24248734 5.92647138,6.14017728 6.31933489,6.07175448 C6.59990747,6.0012369 6.88730998,5.96096327 7.1765664,5.95163086 C7.39636936,5.88610889 8.14369939,5.8533479 8.90201958,5.8533479 C9.60538903,5.86426823 10.3087585,5.84242757 11.0121279,5.88610889 C11.5281912,5.92403594 12.0418141,5.98965364 12.5507486,6.0826748 C12.6668482,6.09532564 12.7811378,6.12096902 12.8914432,6.1591171 L13.5838225,6.34476269 C13.6058034,5.92643499 13.6058034,5.5072526 13.5838225,5.0889249 Z M4.8686354,4.49922715 C4.97853688,4.06241401 5.27527086,3.89860908 5.50606396,3.76756513 C6.08854179,3.43995528 6.7369605,3.24338936 7.57221172,3.11234542 C7.93488659,3.05774377 9.19875357,2.9922218 9.39657622,2.9922218 C10.174887,2.98930094 10.9515999,3.06245531 11.7154974,3.21062837 C12.1786208,3.30686573 12.6286749,3.45715255 13.0562954,3.65836185 C13.2101575,3.73480415 13.550852,3.95321072 13.550852,3.95321072 C13.7565611,4.08952275 13.8989853,4.30180179 13.9464973,4.54290847 C13.9975107,4.77611768 14.0233007,5.01407543 14.0234284,5.25272983 C14.0234284,5.30733147 14.0344185,5.46021607 14.0344185,5.46021607 C14.0344185,5.46021607 15.7928421,4.45554584 16.6061131,3.98597171 C16.5078418,3.91070857 16.4050795,3.84141999 16.2983889,3.77848546 C14.1113496,2.55540866 11.91332,1.33233185 9.7372708,0.0983347157 C9.54528059,-0.0327782386 9.29183245,-0.0327782386 9.09984224,0.0983347157 C6.92379301,1.31049119 4.76972407,2.52264767 2.61565514,3.72388382 C2.48377336,3.80032612 2.36288174,3.87676842 2.19802953,3.98597171 C2.58268469,4.20437828 4.74774378,5.44929574 4.74774378,5.44929574 C4.75055937,5.12900156 4.79113319,4.81013819 4.8686354,4.49922715 Z M16.3203692,16.8064375 C15.2323446,16.0966162 12.5947092,15.1793086 12.5397584,15.1683882 C12.5287683,15.1902289 11.8913397,16.5006683 11.6385663,17.0357644 C11.462724,17.3961353 11.1549998,17.4288962 10.9242067,17.1012864 C10.7373742,16.8282782 10.2428176,16.1184568 10.1878669,16.0310942 C10.0340048,15.8126876 9.88014272,15.8017673 9.70430036,15.9874129 C9.67132992,16.0201739 9.44053681,16.2276601 9.36360578,16.2276601 C9.28667475,16.2276601 9.05588165,16.0201739 9.0229112,15.9874129 C8.8360787,15.8017673 8.71518707,15.790847 8.53934471,16.0310942 C8.36350235,16.2713414 8.02280777,16.7518359 7.83597526,16.9920831 C7.45132009,17.4725776 7.08864522,17.3852149 6.92379301,16.9920831 C6.66002946,16.3696244 6.19844326,15.1902289 6.18745312,15.1793086 C6.14349253,15.1902289 3.49486695,16.1075365 2.40684233,16.8173578 C0.952924885,17.7255626 0.0502784437,19.2941348 0,20.9998437 L18.9909751,20.9998437 C18.9909751,21.0216844 19.2986992,18.750256 16.3203692,16.8064375 Z" id="Shape"></path>
                </g>
            </g>
        </g>
    </g>
</svg>
