<?xml version="1.0" encoding="UTF-8"?>
<svg width="16px" height="15px" viewBox="0 0 16 15" version="1.1" xmlns="http://www.w3.org/2000/svg" xmlns:xlink="http://www.w3.org/1999/xlink">
    <!-- Generator: Sketch 48.1 (47250) - http://www.bohemiancoding.com/sketch -->
    <title>homepage</title>
    <desc>Created with Sketch.</desc>
    <defs></defs>
    <g id="展示版2.2.0" stroke="none" stroke-width="1" fill="none" fill-rule="evenodd" transform="translate(-1274.000000, -167.000000)">
        <g id="homepage" transform="translate(1274.000000, 167.000000)" fill="#666666" fill-rule="nonzero">
            <path d="M13.3442689,13.5485096 L10.6754327,13.5478553 L10.6754327,11.1157603 C10.675067,9.66979661 9.48104881,8.49709388 8.00659654,8.49456791 C6.53473338,8.49456791 5.33776035,9.6703749 5.33776035,11.1157603 L5.33776035,13.5465466 L2.66892416,13.5458923 L2.66892416,4.84675267 L7.99992445,1.42140509 L13.3442689,4.85460447 L13.3442689,13.5485096 Z M9.34101464,13.5478553 L6.67217844,13.547201 L6.67217844,11.1157603 C6.67217844,10.3920861 7.27066496,9.80320117 8.00659654,9.80320117 C8.74252812,9.80320117 9.34101464,10.3920861 9.34101464,11.1157603 L9.34101464,13.5478553 Z M15.6981824,4.80291346 L14.011478,3.71936511 L12.6770599,2.86221032 L8.3722271,0.0957595889 C8.25914573,0.0271364766 8.12738414,-0.0059664532 7.99458678,0.000883676925 C7.86536386,-0.00400194818 7.73759293,0.0290322214 7.6276218,0.0957595889 L0.301666454,4.80291346 C-0.00657490809,5.00094372 -0.0927555275,5.40652958 0.109176652,5.70881483 C0.311108831,6.01110008 0.724686203,6.09561544 1.03292757,5.89758518 L1.33450606,5.70390746 L1.33450606,13.7408787 C1.33450606,14.3559363 1.90163375,14.8571429 2.59753279,14.8571429 L13.4156603,14.8571429 C14.1122265,14.8571429 14.678687,14.3559363 14.678687,13.7408787 L14.678687,5.71241358 L14.9675885,5.89758518 C15.2758299,6.09543477 15.6892579,6.01077293 15.8910059,5.70848768 C16.0927538,5.40620243 16.0064238,5.00076304 15.6981824,4.80291346 Z" id="Shape"></path>
        </g>
    </g>
</svg>