<?xml version="1.0" encoding="UTF-8"?>
<svg width="47px" height="84px" viewBox="0 0 47 84" version="1.1" xmlns="http://www.w3.org/2000/svg" xmlns:xlink="http://www.w3.org/1999/xlink">
    <defs></defs>
    <g stroke="none" stroke-width="1" fill="none" fill-rule="evenodd" transform="translate(-633.000000, -423.000000)">
        <g transform="translate(633.000000, 423.000000)" fill-rule="nonzero">
            <path d="M32,17.1420959 C31.3258427,19.0515098 30.1123596,20.7388988 28.9438202,22.3818828 C28.2696629,23.3143872 27.6404494,24.3357016 26.8764045,25.1793961 C26.247191,25.8898757 25.4831461,26.4671403 24.6741573,27 C24.6292135,24.5577265 24.5842697,22.1154529 24.5842697,19.6731794 C24.494382,13.7673179 24.4494382,7.90586146 24.4494382,2 C26.9662921,3.59857904 32.0898876,7.41740675 30.9213483,12.1243339 C30.3820225,14.3445826 30.5617978,15.8987567 31.5505618,16.7868561 C31.7303371,16.964476 31.8651685,17.053286 32,17.1420959 Z M23.3707865,2 C23.3707865,10.1261101 23.4606742,18.2522202 23.5955056,26.3783304 C21.752809,25.8898757 20.0449438,23.9360568 18.8764045,22.6039076 C17.4382022,20.9609236 16.5842697,18.8738899 16,16.8312611 C16.9438202,15.9431616 17.1685393,14.3889876 16.5842697,12.1687389 C15.4606742,7.86145648 20.8988764,3.64298401 23.3707865,2 Z" id="Shape" fill="#BEDEBC"></path>
            <path d="M23.8241325,27.0746281 C23.9121245,32.0945823 24.0001166,37.1578119 24.0441126,42.1777661 L24.0001166,42.1777661 C20.1284663,42.8701736 16.6087843,40.8795021 13.5290626,38.8022797 C11.8572136,37.6771175 10.4933368,36.4654045 9.34944015,34.8642122 C8.29353555,33.3928463 7.32562299,31.8349295 6.44570249,30.2770127 C6.62168659,29.0220241 6.18172633,27.5939337 6.00574223,27.0746281 C5.91775018,22.4874286 6.84166671,19.3283195 8.7334958,17.9002291 C10.4933368,16.5586896 12.517154,17.1212707 12.56115,17.1212707 C12.6491421,17.1645461 14.1010109,17.5973008 15.3768956,17.1645461 C16.036836,19.4148704 17.0487446,21.5353683 18.6326015,23.3096625 C20.0404743,24.8243038 21.7123233,26.6418734 23.8241325,27.0746281 Z M39.2227413,17.8569536 C41.1145704,19.285044 42.082483,22.4874286 41.9944909,27.0746281 C41.8185068,27.5939337 41.4225426,28.9787487 41.5105346,30.1471863 C39.8386857,33.3062954 38.1228407,36.3788535 35.263099,38.6724533 C32.3153654,41.0093285 28.7956833,42.1777661 25.1440132,43 C25.0560212,37.9367703 24.9680291,32.9168162 24.9240331,27.8535865 C24.9680291,27.8535865 24.9680291,27.8535865 24.9680291,27.810311 C25.9359417,27.2044545 26.9478503,26.5553225 27.6957827,25.6898132 C28.4437151,24.8243038 29.0596595,23.8722435 29.7195999,22.9201833 C30.9954846,21.1458891 32.3153654,19.371595 33.0632978,17.2943725 C34.2071944,17.4674744 35.3070951,17.1212707 35.3510911,17.1212707 C35.4390831,17.1212707 37.4629003,16.5586896 39.2227413,17.8569536 Z" id="Shape" fill="#BEDEBC"></path>
            <path d="M43.1625001,32.0650888 C44.9088943,33.0857988 46.2623499,34.0177515 45.9567309,35.8372781 C45.4328126,38.943787 43.2498198,43.9142012 43.2498198,43.9585799 L43.2061599,44.0473373 C43.1625001,44.1360947 42.7259015,46.0443787 43.2061599,48.0414201 C42.3329628,49.816568 41.066827,51.3254438 39.8006912,52.8343195 C38.5345553,54.2988166 37.1810998,55.4970414 35.5220253,56.4289941 C32.2475361,58.2485207 28.7547476,59.8905325 25.1746394,61 C25.1309796,55.2751479 25.0873197,49.5502959 25,43.8698225 L25.0436599,43.8698225 C28.7984075,43.0266272 32.4221755,41.7840237 35.4783654,39.3431953 C38.2725962,37.1242604 40.0626503,34.1065089 41.678065,31 C41.7217248,31.0443787 41.7653847,31.1331361 41.8527044,31.1775148 C42.2019832,31.4881657 42.6822417,31.7544379 43.1625001,32.0650888 Z" id="Shape" fill="#BEDEBC"></path>
            <path d="M43.0842175,50.180937 C43.7805284,51.2714055 44.4768393,53.9321486 43.5629313,56.4184168 C42.823101,58.3812601 41.212882,59.7770598 38.7322744,60.5621971 L38.6452356,60.6058158 L38.5581967,60.6494346 C38.4276384,60.7366721 35.1201616,63.0048465 33.7710592,66.6688207 C32.7265929,69.5476575 30.6811796,73.0807754 24.3708621,74.9127625 C24.4143815,70.6817447 24.3708621,66.450727 24.3708621,62.2197092 C28.2440915,61.085622 32.0738014,59.2972536 35.5553559,57.3344103 C37.2961332,56.3311793 38.6452356,55.0226171 39.9508185,53.4959612 C40.9952848,52.2746365 41.9962318,51.0533118 42.823101,49.7011309 C42.9101398,49.8319871 42.9971787,50.006462 43.0842175,50.180937 Z M23.2828763,65.2294023 L23.2828763,75 C17.6688697,74.3457189 14.0567569,71.5977383 12.2289408,66.6252019 C10.8798384,62.9612278 7.5723616,60.6930533 7.44180331,60.6058158 L7.35476445,60.5621971 L7.26772559,60.5185784 C4.787118,59.7770598 3.17689904,58.3812601 2.43706871,56.3747981 C1.52316065,53.8885299 2.21947155,51.2714055 2.91578246,50.1373183 C3.35097677,49.4394184 3.61209336,48.6978998 3.74265165,48 C8.3992308,54.368336 15.1447427,59.3408724 23.2828763,59.6462036 L23.2828763,65.2294023 Z" id="Shape" fill="#BEDEBC"></path>
            <path d="M22.8287992,43.7524272 C22.9143996,48.8203883 22.9571998,53.9320388 23,59 C14.9535646,58.6941748 8.36233551,53.3203883 3.95391609,46.7669903 C3.95391609,45.6747573 3.73991515,44.8446602 3.73991515,44.7572816 L3.69711496,44.6699029 C3.65431477,44.6262136 1.55710553,39.7330097 1.04350327,36.6747573 C0.743901952,34.8398058 2.02790761,33.9660194 3.78271534,32.961165 C4.2963176,32.6553398 4.72431949,32.3932039 5.066721,32.131068 L5.19512156,32 C6.09392552,33.5728155 7.03552967,35.1019417 8.06273419,36.5436893 C9.26113947,38.1601942 10.7163459,39.3834951 12.3855532,40.4757282 C15.509967,42.5728155 18.9767823,44.407767 22.8287992,43.7524272 Z" id="Shape" fill="#BEDEBC"></path>
            <path d="M28.5720901,21.9610356 C29.7089379,20.3423936 30.8895106,18.6800044 31.5453843,16.7988799 C31.4142096,16.7113857 31.2393099,16.6238915 31.1518601,16.4926503 C30.189912,15.6177086 29.9712874,14.0865607 30.5397113,11.8992066 C31.6765591,7.26201577 26.6919188,3.49976664 24.2433236,1.92487165 C24.2433236,7.74323368 24.2870485,13.5178486 24.3744983,19.3362107 C24.4182232,21.7423002 24.4182232,24.1483898 24.4619481,26.5544794 C25.2489966,26.0295144 25.9923202,25.4608023 26.604469,24.760849 C27.3040676,23.8859073 27.9162164,22.8797244 28.5720901,21.9610356 Z M36.1365004,57.3961728 C32.5947823,59.4085387 28.7907147,61.158422 24.8991973,62.2958461 C24.8991973,66.5393132 24.9429222,70.7827802 24.8991973,75.0262473 C31.2393099,73.1888698 33.2943809,69.6453561 34.3437789,66.7580486 C35.6992513,63.0832936 39.0223448,60.8084453 39.1535195,60.7209512 L39.2409694,60.6772041 L39.3284192,60.633457 C41.8207394,59.8897566 43.4385612,58.4898499 44.1818848,56.4774841 C45.100108,53.9839004 44.3567844,51.3590754 43.7009107,50.2216512 C43.6134609,50.0466629 43.526011,49.9154217 43.4385612,49.7404333 C42.6515127,51.0965929 41.6021148,52.3215112 40.5527168,53.5464295 C39.2846943,55.0775775 37.885497,56.3899899 36.1365004,57.3961728 Z M41.47094,31.5416468 C39.8531182,34.6476897 38.0603967,37.5787443 35.2620021,39.7660984 C32.2012581,42.172188 28.5720901,43.3971063 24.8117474,44.2283009 L24.7680225,44.2283009 C24.8554724,49.8716746 24.8991973,55.5150483 24.9429222,61.1146749 C28.5283652,60.0209978 32.0263584,58.3586087 35.305727,56.6087254 C37.0109987,55.6900366 38.3227462,54.5088654 39.5907687,53.0652116 C40.8587912,51.5778108 42.1268138,50.09041 43.0013121,48.3405267 C42.520338,46.3719079 43.0013121,44.4907834 43.0013121,44.4032892 L43.045037,44.315795 C43.0887619,44.272048 45.2312827,39.3723747 45.7559817,36.3100789 C46.0620561,34.4727014 44.7503087,33.5977597 42.9575871,32.5915768 C42.4328882,32.2853472 41.995639,32.0228647 41.6458397,31.7603822 C41.5583899,31.6728881 41.514665,31.629141 41.47094,31.5416468 Z M34.7373031,38.7599155 C37.5794226,36.4413201 39.2846943,33.3352772 40.9462411,30.1417402 C40.8150663,28.9168218 41.2523155,27.5169152 41.4272151,27.0356973 C41.514665,22.3985065 40.5964417,19.1612223 38.6725455,17.7175686 C36.9235489,16.361409 34.9122028,16.9738682 34.8684779,16.9738682 C34.824753,16.9738682 33.7316301,17.3675919 32.5947823,17.1488565 C31.8514588,19.2487165 30.5834362,21.0423469 29.2716888,22.8359773 C28.615815,23.754666 28.0036662,24.760849 27.2603427,25.6357906 C26.4732942,26.5107323 25.5113461,27.1669385 24.549398,27.7793977 L24.505673,27.8231448 C24.5931229,32.9415535 24.6805727,38.0162151 24.7242976,43.1346238 C28.3097406,42.3471763 31.8514588,41.1660051 34.7373031,38.7599155 Z M23.3251003,25.8982731 C23.1939256,17.8925569 23.1064758,9.88684075 23.1064758,1.88112457 C20.7016054,3.49976664 15.4546157,7.65573952 16.5477385,11.8992066 C17.1161624,14.0428136 16.8975378,15.6177086 15.9793146,16.4926503 C16.5477385,18.5487632 17.3785119,20.561129 18.7777092,22.1797711 C19.914557,23.4921836 21.5323788,25.4170552 23.3251003,25.8982731 Z M23.7186246,83.4694343 C23.7623495,81.0195977 23.7623495,78.569761 23.8060744,76.1636714 L23.7623495,76.5136481 C17.5096867,75.8136948 13.4869945,72.7951461 11.4756484,67.2392665 C10.3825255,64.2207178 7.71530571,62.208352 7.23433164,61.8583753 C3.69261353,60.7646982 2.24969134,58.5773441 1.63754253,56.958702 C0.544419659,54.0276475 1.37519304,50.9216046 2.24969134,49.565445 C3.43026404,47.6843204 2.90556507,45.1907367 2.86184015,44.84076 C2.59949066,44.2283009 0.631869489,39.6786042 0.063445595,36.5725614 C-0.417528469,33.6852539 1.94361694,32.3728414 3.51771387,31.4541527 C3.95496302,31.1916702 4.34848726,30.9729347 4.56711183,30.7541993 C5.09181081,30.2729814 4.78573641,28.479351 4.39221217,27.3856739 L4.34848726,27.2981798 L4.34848726,27.2106856 C4.21731251,22.0047827 5.31043539,18.461269 7.58413096,16.7113857 C9.85782654,14.9615024 12.4813214,15.7052028 12.5687713,15.7489499 C13.0497453,15.8801911 14.4052177,16.1426736 15.0610914,15.5302145 C15.6295153,15.0052495 15.6732402,13.8678253 15.279716,12.2491832 C13.7056191,6.12459162 22.450602,0.74370041 23.5,0.0874941659 L23.5437249,0 C23.5437249,0 23.5874498,0 23.5874498,0.043747083 C24.549398,0.568712079 33.4692806,5.42463829 31.7640089,12.2491832 C31.3704847,13.9115724 31.4579345,15.0489965 31.9826335,15.5739615 C32.6385072,16.1864207 33.9502547,15.9239382 34.4312287,15.792697 C34.5624035,15.7489499 37.1421735,15.0052495 39.415869,16.7551328 C41.6895646,18.5050161 42.7826875,22.0485298 42.6515127,27.2544327 L42.6515127,27.3419269 L42.6077878,27.429421 C42.2142636,28.5230981 41.9081892,30.3167285 42.4328882,30.7979464 C42.6515127,30.9729347 43.045037,31.2354172 43.4822861,31.4978997 C45.0563831,32.3728414 47.4175285,33.729001 46.9365544,36.6163084 C46.4118554,39.7223513 44.4005093,44.272048 44.1381598,44.8845071 C44.05071,45.2344838 43.569736,47.7280675 44.7503087,49.6091921 C45.581082,50.9653517 46.4555803,54.0713945 45.3624575,57.0024491 C44.7503087,58.6210912 43.2636616,60.8084453 39.7656684,61.9021224 C39.2846943,62.2520991 36.6174745,64.2644649 35.5243516,67.2830136 C34.3437789,70.5640448 32.0263584,74.5012823 24.8117474,76.469901 C24.7680225,78.8322435 24.7680225,81.194586 24.7242976,83.5131814 C24.8117474,84.1693876 23.6748997,84.1693876 23.7186246,83.4694343 Z M23.7623495,59.8022624 C15.6295153,59.4960328 8.8521535,54.4651183 4.1735876,48.1217913 C4.04241285,48.8217446 3.78006336,49.565445 3.34281422,50.2653983 C2.64321558,51.3590754 1.94361694,54.0276475 2.86184015,56.5212312 C3.6051637,58.4898499 5.22298556,59.8897566 7.71530571,60.6772041 L7.80275554,60.7209512 L7.89020537,60.7646982 C8.02138011,60.8521924 11.3444736,63.1270407 12.699946,66.8017957 C14.5363924,71.7889631 18.1655604,74.5450294 23.8060744,75.2012356 C23.8497993,71.9202044 23.8497993,68.6391732 23.8060744,65.401889 C23.8060744,63.4770174 23.8060744,61.6396399 23.7623495,59.8022624 Z M4.30476234,46.415655 C8.80842858,52.9777175 15.5420655,58.3586087 23.7623495,58.6648383 C23.7186246,53.5901766 23.6748997,48.515515 23.5874498,43.3971063 C19.6522075,44.0533125 16.1104894,42.2159351 12.9185706,40.072328 C11.2570238,38.9349038 9.7266518,37.7537326 8.50235418,36.1350905 C7.4092313,34.6914368 6.49100809,33.1602889 5.57278488,31.5853939 L5.44161013,31.7166351 C5.13553573,32.0228647 4.65456166,32.2853472 4.12986268,32.5478297 C2.33714117,33.5540126 1.02539372,34.4727014 1.33146813,36.2663318 C1.85616711,39.3286276 3.99868794,44.2283009 4.04241285,44.272048 L4.08613777,44.3595421 C4.08613777,44.4907834 4.30476234,45.321978 4.30476234,46.415655 Z M8.98332824,34.9101722 C10.120176,36.5288143 11.5193733,37.7974797 13.1371952,38.8911568 C16.1979392,40.9472697 19.6959324,43.0033826 23.5437249,42.3034292 L23.5874498,42.3034292 C23.5,37.2287676 23.4125502,32.1103589 23.3688253,27.0356973 C21.2700293,26.5982264 19.6084826,24.804596 18.2530102,23.2297011 C16.6789133,21.4798177 15.6732402,19.2924636 15.0173665,17.0176153 C13.749344,17.4550861 12.3064218,16.9738682 12.2189719,16.9738682 C12.175247,16.9738682 10.1639009,16.4051561 8.41490435,17.7613157 C6.53473301,19.2049694 5.61650979,22.4422536 5.70395962,27.0356973 C5.87885928,27.5606623 6.31610843,29.0480631 6.14120877,30.2729814 C7.01570707,31.8916235 7.93393028,33.4227714 8.98332824,34.9101722 Z" id="Shape" fill="#66A771"></path>
        </g>
    </g>
</svg>
