<?xml version="1.0" encoding="UTF-8"?>
<svg width="14px" height="17px" viewBox="0 0 14 17" version="1.1" xmlns="http://www.w3.org/2000/svg" xmlns:xlink="http://www.w3.org/1999/xlink">
    <!-- Generator: Sketch 48.1 (47250) - http://www.bohemiancoding.com/sketch -->
    <title>shuye-2</title>
    <desc>Created with Sketch.</desc>
    <defs></defs>
    <g id="展示版2.2.0" stroke="none" stroke-width="1" fill="none" fill-rule="evenodd" transform="translate(-620.000000, -111.000000)">
        <g id="shuye-2" transform="translate(616.000000, 108.000000)" fill="#85C485" fill-rule="nonzero">
            <path d="M5,12.944212 C5,13.6994421 5.03641707,14.4679219 5.12745974,15.223152 C5.25491949,16.3758717 5.67371578,17.6213389 6.74801933,18.5090656 C7.76769728,19.3570432 8.82379229,20.1917713 10.1348068,20.8012552 C10.1165983,19.8075314 10.1165983,18.8005579 10.1165983,17.806834 L10.1165983,16.1638773 L10.0619727,16.1638773 C9.06050324,16.1506276 8.36857892,15.6868898 7.76769728,15.1569038 C7.02114735,14.4944212 6.3656401,13.7921897 5.78296699,13.0502092 C5.74654992,13.0104603 5.74654992,12.9707113 5.74654992,12.944212 C5.74654992,12.7587169 6.14713769,12.6262204 6.3110145,12.8382148 C6.76622787,13.4211994 7.27606684,13.9909344 7.84053142,14.5341702 C8.40499599,15.0641562 9.04229471,15.7266388 10.0619727,15.7398884 L10.1165983,15.7398884 C10.1348068,13.3682008 10.2258495,10.9965132 10.4079348,8.62482566 C10.4261433,8.34658298 11.027025,8.34658298 11.0088165,8.62482566 C10.8995653,10.0160391 10.8267311,11.4205021 10.790314,12.8249651 C12.1377456,12.5467225 13.0663809,11.7517434 13.8675564,10.930265 C14.0860588,10.7050209 14.5958978,10.9170153 14.3773954,11.1422594 C13.4669686,12.0829847 12.3744566,12.9972106 10.7721055,13.2622036 C10.7356884,14.7196653 10.7174799,16.1771269 10.7174799,17.6345886 C10.7174799,18.7608089 10.7356884,19.8870293 10.7356884,21 C12.7022102,20.1122734 14.0678503,18.8270572 14.9236514,17.2900976 C16.2892915,14.8521618 16.271083,11.9902371 15.3424477,9.47280335 C15.1421538,8.91631799 14.978277,8.35983264 14.7233575,7.81659693 C14.3773954,7.08786611 13.8857649,6.38563459 13.375926,5.69665272 C12.4472907,4.4511855 11.4822384,3.23221757 10.5353946,2 C8.95125204,3.11297071 8.02261677,4.46443515 7.13039856,5.92189679 C6.16534622,7.44560669 5.49163044,9.00906555 5.20029388,10.6520223 C5.07283414,11.4072524 5,12.1757322 5,12.944212 Z" id="Shape" transform="translate(10.500000, 11.500000) scale(-1, 1) rotate(36.000000) translate(-10.500000, -11.500000) "></path>
        </g>
    </g>
</svg>