<?xml version="1.0" encoding="UTF-8"?>
<svg width="14px" height="12px" viewBox="0 0 14 12" version="1.1" xmlns="http://www.w3.org/2000/svg" xmlns:xlink="http://www.w3.org/1999/xlink">
    <!-- Generator: Sketch 48.1 (47250) - http://www.bohemiancoding.com/sketch -->
    <title>mail</title>
    <desc>Created with Sketch.</desc>
    <defs></defs>
    <g id="展示版2.1.7" stroke="none" stroke-width="1" fill="none" fill-rule="evenodd" transform="translate(-1275.000000, -93.000000)">
        <g id="mail" transform="translate(1275.000000, 93.370030)" fill="#666666" fill-rule="nonzero">
            <path d="M12.8321667,9.92572717 L1.16666667,9.92903574 L1.16666667,3.21042131 L6.68675,6.53112848 C6.8781295,6.6459587 7.12245384,6.6459587 7.31383333,6.53112848 L12.8333333,3.21042131 L12.8321667,9.92572717 Z M1.16666667,1.09899857 L1.16841667,1.10285857 L12.8333333,1.09899857 L12.8333333,1.90298247 L7,5.41172702 L1.16666667,1.90298247 L1.16666667,1.09899857 Z M12.8321667,3.15300645e-15 L1.16841667,3.15300645e-15 C0.524992922,-0.000916073857 0.00225125589,0.490768408 -2.84217094e-14,1.09899857 L-2.84217094e-14,9.92903574 C-2.79036054e-14,10.5350565 0.524416667,11.0285857 1.16841667,11.0285857 L12.8321667,11.0285857 C13.4755898,11.0291967 13.9980701,10.5372659 14,9.92903574 L14,1.09899857 C13.9977491,0.490983924 13.4753628,-0.000611741415 12.8321667,3.15300645e-15 Z" id="Shape"></path>
        </g>
    </g>
</svg>
