<?xml version="1.0" encoding="UTF-8"?>
<svg width="20px" height="16px" viewBox="0 0 20 16" version="1.1" xmlns="http://www.w3.org/2000/svg" xmlns:xlink="http://www.w3.org/1999/xlink">
    <!-- Generator: Sketch 48.1 (47250) - http://www.bohemiancoding.com/sketch -->
    <title>biyan-2</title>
    <desc>Created with Sketch.</desc>
    <defs></defs>
    <g id="个人计划页" stroke="none" stroke-width="1" fill="none" fill-rule="evenodd" transform="translate(-1215.000000, -371.000000)">
        <g id="biyan-2" transform="translate(1215.000000, 371.000000)" fill="#7CB57C" fill-rule="nonzero">
            <path d="M9.99788845,3.18157547 C12.5044412,3.18157547 14.5436707,4.96118073 14.5436707,7.15618458 C14.5424248,7.6587697 14.4312565,8.15499918 14.2179604,8.61007959 L16.8708468,10.9325353 C18.2195467,9.96553739 19.2932573,8.66406985 19.9863361,7.15618458 C18.4097097,3.66778062 14.5342298,1.19427091 9.98844764,1.19427091 C8.76171368,1.19320656 7.54213308,1.38107929 6.3725918,1.75128264 L8.33629415,3.46952221 C8.86969194,3.27951127 9.43165792,3.18212512 9.99788845,3.18157547 Z M0.911044606,1.01017382 L2.98331705,2.83226303 L3.40343608,3.20045721 C1.92601079,4.18009805 0.748153576,5.54909161 0,7.15618458 C1.57190598,10.649309 5.45210632,13.1228187 9.99788845,13.1228187 C11.3525706,13.1245419 12.697855,12.8979341 13.977218,12.4525165 L14.3595735,12.7876676 L17.0219008,15.1054028 L18.1784082,14.095229 L2.06283156,0 L0.911044606,1.01017382 Z M5.93831147,5.40962238 L7.35444297,6.6416568 C7.3079138,6.81083271 7.2841027,6.9854478 7.28363639,7.16090498 C7.28363639,8.48262777 8.5015095,9.54472642 10.0120498,9.54472642 C10.2103107,9.54440767 10.408021,9.52384579 10.6021046,9.48336068 L12.0182361,10.7153951 C11.3868713,10.9909592 10.7056495,11.1339515 10.0167703,11.1355142 C7.51021748,11.1355142 5.47098808,9.35590886 5.47098808,7.16090498 C5.47114982,6.54696218 5.63053994,5.9435567 5.93359105,5.40962238 L5.93831147,5.40962238 Z M9.85627532,4.79124495 L12.7215814,7.29779771 L12.7215814,7.17034589 C12.7215814,5.84862315 11.5037083,4.78652452 9.99316805,4.78652452 L9.85627532,4.79124495 Z" id="Shape"></path>
        </g>
    </g>
</svg>