<?xml version="1.0" encoding="UTF-8"?>
<svg width="15px" height="16px" viewBox="0 0 15 16" version="1.1" xmlns="http://www.w3.org/2000/svg" xmlns:xlink="http://www.w3.org/1999/xlink">
    <!-- Generator: Sketch 48.1 (47250) - http://www.bohemiancoding.com/sketch -->
    <title>search</title>
    <desc>Created with Sketch.</desc>
    <defs></defs>
    <g id="新建目标" stroke="none" stroke-width="1" fill="none" fill-rule="evenodd" transform="translate(-436.000000, -30.000000)">
        <g id="上" fill="#999999" fill-rule="nonzero">
            <g id="search" transform="translate(436.000000, 30.000000)">
                <path d="M1.40625,6.796875 C1.40625,3.81971502 3.85469277,1.40625 6.875,1.40625 C9.89530723,1.40625 12.34375,3.81971502 12.34375,6.796875 C12.34375,9.77403498 9.89530723,12.1875 6.875,12.1875 C3.85469277,12.1875 1.40625,9.77403498 1.40625,6.796875 M14.8008895,14.4668012 L11.7546686,11.4320831 C12.9494947,10.1770794 13.615202,8.51289766 13.614395,6.78300883 C13.614395,3.03675306 10.5668126,0 6.80719748,0 C3.04758231,0 0,3.03675306 0,6.78300883 C0,10.5292646 3.04758231,13.5660177 6.80719748,13.5660177 C8.21072221,13.5669914 9.57980358,13.1329548 10.7247396,12.3240488 L13.837671,15.426597 C14.1038325,15.6911343 14.5347281,15.6911343 14.8008895,15.426597 C15.0663702,15.1613813 15.0663702,14.7320169 14.8008895,14.4668012" id="Shape"></path>
            </g>
        </g>
    </g>
</svg>