<?xml version="1.0" encoding="UTF-8"?>
<svg width="14px" height="14px" viewBox="0 0 14 14" version="1.1" xmlns="http://www.w3.org/2000/svg" xmlns:xlink="http://www.w3.org/1999/xlink">
    <!-- Generator: Sketch 48.1 (47250) - http://www.bohemiancoding.com/sketch -->
    <title>setup</title>
    <desc>Created with Sketch.</desc>
    <defs></defs>
    <g id="展示版2.1.7" stroke="none" stroke-width="1" fill="none" fill-rule="evenodd" transform="translate(-1275.000000, -117.000000)">
        <g id="setup" transform="translate(1275.000000, 117.214339)" fill="#666666" fill-rule="nonzero">
            <path d="M12.7114163,7.89610934 C12.009164,7.9991761 11.3936075,8.41452993 11.0413336,9.02301688 C10.6845658,9.6280653 10.6278329,10.3609913 10.8873337,11.0125241 C10.2892072,11.5417417 9.58649473,11.9428912 8.82350107,12.1906808 C8.38194617,11.6419674 7.70988994,11.323417 7.00000173,11.3263537 C6.29008638,11.3234436 5.6179395,11.6417229 5.17591905,12.190105 C4.41302955,11.9423644 3.71034496,11.5414269 3.11208645,11.0125241 C3.37176379,10.3610782 3.31524603,9.6281556 2.95866984,9.02301688 C2.60627366,8.41438527 1.99047099,7.99901042 1.28800377,7.89610934 C1.12555225,7.11982658 1.12555225,6.31895771 1.28800377,5.54267495 C1.99029563,5.43973906 2.60601109,5.02463525 2.95866984,4.41634325 C3.31526283,3.81100046 3.37177802,3.07789909 3.11208645,2.42626024 C3.71021292,1.89704263 4.41292539,1.4958931 5.17591905,1.24810345 C5.61776135,1.79684868 6.28990794,2.1155522 7.00000173,2.11300643 C7.72391813,2.11300643 8.38658456,1.79053927 8.82350107,1.24810345 C9.58655025,1.4957707 10.289287,1.89693407 10.8873337,2.42626024 C10.6279062,3.07799895 10.6846336,3.81106479 11.0413336,4.41634325 C11.39387,5.02449067 12.0093394,5.43957349 12.7114163,5.54267495 C12.874743,6.31886918 12.874743,7.11991511 12.7114163,7.89610934 M13.735166,4.83151971 C13.6615276,4.56963555 13.4113223,4.39510635 13.1366662,4.41403991 C12.6935559,4.44385568 12.2721488,4.2210999 12.0516666,3.84050904 C11.8281763,3.46153551 11.8431197,2.98994338 12.0901666,2.62549887 C12.2415057,2.40011578 12.2135976,2.1011449 12.0230833,1.90685778 C11.1185079,0.985270571 9.97148217,0.330988823 8.71091778,0.0175457588 C8.44464383,-0.0487790934 8.16759728,0.0774078635 8.04591802,0.32043455 C7.85018826,0.71399041 7.44413513,0.96280655 7.00000173,0.96133802 C6.55586832,0.96280655 6.1498152,0.71399041 5.95408543,0.32043455 C5.83224217,0.0775742164 5.55533784,-0.0485479617 5.28908567,0.0175457588 C4.02853938,0.330712589 2.88149067,0.984808052 1.97692019,1.90628195 C1.7856081,2.10060946 1.75743334,2.40031387 1.90925355,2.6260747 C2.15633491,2.9902968 2.17128088,3.46174883 1.94775354,3.84050904 C1.72696721,4.22079111 1.30577246,4.44343468 0.862753927,4.41403991 C0.587787627,4.39354215 0.336841142,4.56875909 0.264837475,4.83151971 C0.088421296,5.44576581 -0.00070810703,6.08122458 4.23621528e-06,6.71968006 C4.23621528e-06,7.36115937 0.0886708711,7.99630449 0.264837475,8.60726459 C0.339212568,8.86838156 0.588567763,9.04248741 0.862753927,9.02474438 C1.30556175,8.99699312 1.72601929,9.21947016 1.94775354,9.59885109 C2.17117012,9.98005333 2.1565868,10.4453274 1.90925355,10.8127096 C1.75775091,11.0383472 1.78591424,11.3376902 1.97692019,11.5319265 C2.8812602,12.453692 4.02839863,13.1078386 5.28908567,13.4206627 C5.55523657,13.4873101 5.83237834,13.3613197 5.95408543,13.1183497 C6.14987266,12.7249216 6.55596003,12.4763081 7.00000173,12.4780221 C7.4468349,12.4780221 7.84758476,12.7233275 8.04591802,13.1183497 C8.16776128,13.3612101 8.44466561,13.4873323 8.71091778,13.4212385 C9.97161116,13.1081094 11.118719,12.4537808 12.0230833,11.5319265 C12.2142095,11.3374564 12.2421403,11.0377633 12.0901666,10.8121338 C11.8435686,10.4481815 11.8286273,9.97732522 12.0516666,9.59885109 C12.2705529,9.21658242 12.6929989,8.99305328 13.1366662,9.02474438 C13.4108328,9.04086774 13.659916,8.86754165 13.735166,8.60726459 C13.9111826,7.99313234 14.0003048,7.35791883 13.6666662,6.71968006 C13.6666662,6.07820076 13.9107492,5.44305563 13.735166,4.83094387" id="Shape"></path>
            <path d="M7,8.51116892 C5.97084444,8.51116892 5.13333333,7.70663948 5.13333333,6.71934388 C5.13333333,5.73085374 5.97084444,4.92751885 7,4.92751885 C8.02915556,4.92751885 8.86666667,5.73085374 8.86666667,6.71934388 C8.86666667,7.70663948 8.02915556,8.51116892 7,8.51116892 M7,3.73296882 C5.28453333,3.73296882 3.88888889,5.0720594 3.88888889,6.71934388 C3.88888889,8.36603109 5.28453333,9.70571894 7,9.70571894 C8.71546667,9.70571894 10.1111111,8.36543381 10.1111111,6.71934388 C10.1111111,5.0720594 8.71546667,3.73296882 7,3.73296882" id="Shape"></path>
        </g>
    </g>
</svg>
