<?xml version="1.0" encoding="UTF-8"?>
<svg width="14px" height="15px" viewBox="0 0 14 15" version="1.1" xmlns="http://www.w3.org/2000/svg" xmlns:xlink="http://www.w3.org/1999/xlink">
    <!-- Generator: Sketch 48.1 (47250) - http://www.bohemiancoding.com/sketch -->
    <title>退出的副本</title>
    <desc>Created with Sketch.</desc>
    <defs></defs>
    <g id="展示版2.1.7" stroke="none" stroke-width="1" fill="none" fill-rule="evenodd" transform="translate(-1275.000000, -143.000000)">
        <g id="退出的副本" transform="translate(1275.000000, 143.000000)" fill="#666666" fill-rule="nonzero">
            <path d="M6.93442623,14.127377 C3.13144262,14.127377 0.00757377049,11.0035082 0.00757377049,7.20052459 C0.00757377049,5.16321311 0.822508197,3.2617377 2.31652459,1.90352459 C2.58816393,1.63188525 3.13145902,1.63188525 3.26727869,1.90352459 C3.53891803,2.17516393 3.53891803,2.58262295 3.13145902,2.85427869 C2.04488525,3.94085246 1.36578689,5.57067213 1.36578689,7.20052459 C1.36578689,10.3243934 3.81055738,12.7691639 6.93442623,12.7691639 C10.0582951,12.7691639 12.5030656,10.1885574 12.5030656,7.20052459 C12.5030656,5.57068852 11.8239672,4.07665574 10.6015902,2.99009836 C10.3299508,2.71845902 10.3299508,2.311 10.6015902,2.03934426 C10.8732295,1.76770492 11.2806885,1.76770492 11.5523443,2.03934426 C13.0463607,3.39755738 13.9971148,5.29904918 13.9971148,7.33634426 C13.8612951,11.0034918 10.7374098,14.127377 6.93444262,14.127377 L6.93442623,14.127377 Z M6.93442623,6.52142623 C6.52698361,6.52142623 6.25532787,6.24978689 6.25532787,5.84232787 L6.25532787,0.681163934 C6.25532787,0.273721311 6.52696721,0.00206557377 6.93442623,0.00206557377 C7.34186885,0.00206557377 7.61352459,0.273704918 7.61352459,0.681163934 L7.61352459,5.84232787 C7.61352459,6.24977049 7.34188525,6.52142623 6.93442623,6.52142623 Z" id="Shape"></path>
        </g>
    </g>
</svg>
