<?xml version="1.0" encoding="UTF-8"?>
<svg width="16px" height="16px" viewBox="0 0 16 16" version="1.1" xmlns="http://www.w3.org/2000/svg" xmlns:xlink="http://www.w3.org/1999/xlink">
    <!-- Generator: Sketch 48.1 (47250) - http://www.bohemiancoding.com/sketch -->
    <title>wifi</title>
    <desc>Created with Sketch.</desc>
    <defs></defs>
    <g id="展示版2.1.7" stroke="none" stroke-width="1" fill="none" fill-rule="evenodd" transform="translate(-1274.000000, -64.000000)">
        <g id="wifi" transform="translate(1281.707107, 71.585786) rotate(45.000000) translate(-1281.707107, -71.585786) translate(1274.207107, 64.085786)">
            <circle id="Oval-3" stroke="#666666" stroke-width="1.3" cx="7.99926739" cy="7.58580262" r="7"></circle>
            <path d="M10.9049645,10.1364711 C10.7617021,10.1364711 10.6241135,10.0898345 10.5078014,9.99957017 C9.78723404,9.44594885 8.94326241,9.16612938 7.99858156,9.16612938 C7.05531915,9.16612938 6.21134752,9.44745326 5.4893617,9.99957017 C5.37304965,10.0883301 5.23546099,10.1364711 5.09219858,10.1364711 C4.90780142,10.1364711 4.72765957,10.0552332 4.59716312,9.91532345 C4.45673759,9.76337847 4.38723404,9.55426606 4.40425532,9.34214485 C4.4212766,9.13002364 4.5248227,8.9359553 4.68794326,8.81108962 C5.16737589,8.44401461 5.6893617,8.16569955 6.23971631,7.98216205 C6.79148936,7.79862454 7.38865248,7.70535139 8.01276596,7.70535139 C8.63687943,7.70535139 9.23262411,7.79862454 9.78014184,7.98216205 C10.3276596,8.16569955 10.8439716,8.44401461 11.3177305,8.80958521 C11.4794326,8.93445089 11.5815603,9.12851923 11.5985816,9.33913604 C11.6156028,9.54975285 11.5446809,9.75886525 11.4056738,9.91081023 L11.4014184,9.91532345 C11.2695035,10.0552332 11.0893617,10.1364711 10.9049645,10.1364711 Z M7.99858156,13.3829787 C7.8141844,13.3829787 7.64113475,13.306254 7.51205674,13.1693531 L7.0751773,12.7059961 C6.8964539,12.516441 6.83120567,12.2486568 6.89929078,11.989899 C6.96737589,11.7326456 7.15460993,11.5415861 7.39858156,11.478401 C7.58723404,11.43026 7.78865248,11.4061896 7.99858156,11.4061896 C8.20851064,11.4061896 8.40992908,11.43026 8.59858156,11.478401 C8.84397163,11.5415861 9.02978723,11.7326456 9.09787234,11.989899 C9.16595745,12.2486568 9.10070922,12.516441 8.92198582,12.7059961 L8.48510638,13.1693531 C8.35460993,13.3077584 8.18297872,13.3829787 7.99858156,13.3829787 Z M13.2822695,7.47818612 C13.1219858,7.47818612 12.964539,7.41800989 12.8397163,7.30969267 C11.4624113,6.10466366 9.83262411,5.49387492 7.99716312,5.49387492 C6.16170213,5.49387492 4.53191489,6.10466366 3.15460993,7.30818827 C3.02978723,7.41650548 2.87234043,7.47668171 2.71205674,7.47668171 C2.52765957,7.47668171 2.35602837,7.40146142 2.22553191,7.26305609 L2.20992908,7.24650763 C2.07375887,7.10208468 2,6.9004943 2.00851064,6.69589512 C2.01702128,6.48828713 2.10496454,6.30174081 2.25531915,6.16935311 C3.07234043,5.45024715 3.97021277,4.90414786 4.92340426,4.54459489 C5.87801418,4.18504191 6.91631206,4.00300881 8.00992908,4.00300881 C9.1035461,4.00300881 10.1404255,4.18504191 11.0907801,4.54459489 C12.0411348,4.90414786 12.9333333,5.45024715 13.7432624,6.1678487 C13.8921986,6.30023641 13.9801418,6.48678272 13.9886525,6.69439072 C13.9971631,6.8989899 13.9234043,7.09907587 13.787234,7.24349882 L13.7687943,7.2645605 C13.6397163,7.40146142 13.4666667,7.47818612 13.2822695,7.47818612 Z" id="Shape" fill="#666666" fill-rule="nonzero"></path>
        </g>
    </g>
</svg>
